<svg xmlns="http://www.w3.org/2000/svg" xmlns:xlink="http://www.w3.org/1999/xlink" version="1.1" preserveAspectRatio="xMidYMid meet" width="6000" height="793" style=""><rect id="backgroundrect" width="100%" height="100%" x="0" y="0" fill="none" stroke="none"/><defs><path d="M8 412.74L4961 412.74L4961 495.11L8 495.11L8 412.74Z" id="b1liUptVWW"/><path d="M0 219.18L4961 219.18L4961 301.55L0 301.55L0 219.18Z" id="a1IjZsYtSn"/><path d="M2546.73 534.05C2444.31 534.04 2361.3 455.6 2361.32 358.86C2361.33 282.47 2413.73 214.89 2490.83 191.86C2491.74 187.08 2499.02 148.87 2499.94 144.1C2374.76 168.96 2294.62 284.97 2320.93 403.22C2343.45 504.45 2437.93 576.94 2547.43 577.01C2551.63 577.01 2555.82 576.89 2560.02 576.68C2560.02 568.07 2560.02 542.22 2560.02 533.6C2555.63 533.89 2551.19 534.05 2546.73 534.05Z" id="apKIxaEoP"/><path d="M2546.73 534.05C2444.31 534.04 2361.3 455.6 2361.32 358.86C2361.33 282.47 2413.73 214.89 2490.83 191.86C2491.74 187.08 2499.02 148.87 2499.94 144.1C2374.76 168.96 2294.62 284.97 2320.93 403.22C2343.45 504.45 2437.93 576.94 2547.43 577.01C2551.63 577.01 2555.82 576.89 2560.02 576.68C2560.02 568.07 2560.02 542.22 2560.02 533.6C2555.63 533.89 2551.19 534.05 2546.73 534.05Z" id="b1CWODFAtq"/><path d="M2517.62 411.34C2452.2 327.33 2415.87 280.66 2408.6 271.32C2396.9 287.73 2388.74 306.14 2384.56 325.52C2400.51 346 2440.38 397.19 2504.16 479.11C2506.85 465.56 2516.27 418.12 2517.62 411.34Z" id="aBMwV8ycj"/><path d="M2517.62 411.34C2452.2 327.33 2415.87 280.66 2408.6 271.32C2396.9 287.73 2388.74 306.14 2384.56 325.52C2400.51 346 2440.38 397.19 2504.16 479.11C2506.85 465.56 2516.27 418.12 2517.62 411.34Z" id="cgPPvkCge"/><path d="M2727.84 396.65C2718.02 438.69 2692.15 475.84 2655.16 501C2655.16 506.1 2655.16 546.87 2655.16 551.96C2768.43 495.79 2812.05 363.52 2752.59 256.52C2720.48 198.75 2662.76 157.52 2595.17 144.1C2593.49 152.85 2587.61 183.46 2586.77 187.84C2686.76 208.7 2749.92 302.19 2727.84 396.65Z" id="h1GVOVVZ2Q"/><path d="M2727.84 396.65C2718.02 438.69 2692.15 475.84 2655.16 501C2655.16 506.1 2655.16 546.87 2655.16 551.96C2768.43 495.79 2812.05 363.52 2752.59 256.52C2720.48 198.75 2662.76 157.52 2595.17 144.1C2593.49 152.85 2587.61 183.46 2586.77 187.84C2686.76 208.7 2749.92 302.19 2727.84 396.65Z" id="b2Nt2ycwf1"/><path d="M2579.39 357.73L2579.39 638.97L2632.73 680L2632.73 680L2632.73 357.73L2579.39 357.73Z" id="aldMRl7t"/><path d="M2579.39 357.73L2579.39 638.97L2632.73 680L2632.73 680L2632.73 357.73L2579.39 357.73Z" id="a2TzWwFIcR"/><path d="M2707.87 369.97C2708.34 364.16 2708.29 359.41 2708.34 358.24C2708.34 345.19 2706.58 332.2 2703.08 319.58C2690.33 319.58 2626.58 319.58 2511.84 319.58C2511.84 322.94 2511.84 339.74 2511.84 369.97C2633.81 369.97 2699.15 369.97 2707.87 369.97Z" id="e2ps4ZizI"/><path d="M2707.87 369.97C2708.34 364.16 2708.29 359.41 2708.34 358.24C2708.34 345.19 2706.58 332.2 2703.08 319.58C2690.33 319.58 2626.58 319.58 2511.84 319.58C2511.84 322.94 2511.84 339.74 2511.84 369.97C2633.81 369.97 2699.15 369.97 2707.87 369.97Z" id="d6bVgpm5aJ"/><path d="M2505.75 480.73L2594.99 40L2529.9 75.51L2529.9 75.51L2459.8 421.69L2505.75 480.73Z" id="b1SZ6VRmor"/><path d="M2505.75 480.73L2594.99 40L2529.9 75.51L2529.9 75.51L2459.8 421.69L2505.75 480.73Z" id="dCdQpdebg"/><path d="M2485.89 350.87L2490.34 423.9L2457.04 375.21" id="a3QG48Mj6K"/><path d="M2485.89 350.87L2490.34 423.9L2457.04 375.21" id="b1Lg9p7Hxy"/><path d="M2479.94 424.9C2465.22 424.9 2453.27 411.68 2453.27 395.4C2453.27 379.12 2465.22 365.9 2479.94 365.9C2494.66 365.9 2506.61 379.12 2506.61 395.4C2506.61 411.68 2494.66 424.9 2479.94 424.9Z" id="a1Lm26QW6U"/><path d="M2472.63 371.97C2460.15 371.97 2450.03 368.47 2450.03 364.16C2450.03 359.85 2460.15 356.36 2472.63 356.36C2485.1 356.36 2495.23 359.85 2495.23 364.16C2495.23 368.47 2485.1 371.97 2472.63 371.97Z" id="b8Qn4j4D6"/><path d="M2627.48 333.5L2627.48 383.89L2584.44 383.89L2584.44 333.5L2627.48 333.5Z" id="aONhn5nsI"/><path d="M2536.36 360.73C2520.53 360.73 2507.67 352.4 2507.67 342.15C2507.67 331.9 2520.53 323.58 2536.36 323.58C2552.2 323.58 2565.06 331.9 2565.06 342.15C2565.06 352.4 2552.2 360.73 2536.36 360.73Z" id="e6rmLoQP4"/><path d="M2528.5 364.66C2519.3 364.66 2511.84 360.66 2511.84 355.73C2511.84 350.79 2519.3 346.79 2528.5 346.79C2537.69 346.79 2545.15 350.79 2545.15 355.73C2545.15 360.66 2537.69 364.66 2528.5 364.66Z" id="h14uyg7w1r"/><path d="M2532.15 333.65L2532.15 363.36L2492.7 363.36L2492.7 333.65L2532.15 333.65Z" id="c8U2JDmZXv"/></defs><g class="currentLayer" style=""><title>Layer 1</title><g id="svg_1" class="selected" transform=""><g id="svg_2" transform=""><g id="svg_3" transform=""><use xlink:href="#b1liUptVWW" opacity="1" fill="#4b1175" fill-opacity="1" id="svg_4" transform="matrix(1.21098 0 0 1.20762 -6.66658 -41.1841)" y="0" x="0"/></g><g id="svg_5" transform=""><use xlink:href="#a1IjZsYtSn" opacity="1" fill="#ae9305" fill-opacity="1" id="svg_6" transform="matrix(1.21098 0 0 1.20762 -6.66658 -41.1841)" y="0" x="0"/></g><g id="svg_7" transform=""><use xlink:href="#apKIxaEoP" opacity="1" fill="#7f47ae" fill-opacity="1" id="svg_8" transform="matrix(1.21098 0 0 1.20762 -6.66658 -41.1841)" y="0" x="0"/><g id="svg_9" transform=""><use xlink:href="#apKIxaEoP" opacity="1" fill-opacity="0" stroke="#000000" stroke-width="1" stroke-opacity="0" id="svg_10" transform="matrix(1.21098 0 0 1.20762 -6.66658 -41.1841)" y="0" x="0"/></g></g><g id="svg_11" transform=""><use xlink:href="#b1CWODFAtq" opacity="1" fill="#000000" fill-opacity="0" id="svg_12" transform="matrix(1.21098 0 0 1.20762 -6.66658 -41.1841)" y="0" x="0"/><g id="svg_13" transform=""><use xlink:href="#b1CWODFAtq" opacity="1" fill-opacity="0" stroke="#000000" stroke-width="1" stroke-opacity="0" id="svg_14" transform="matrix(1.21098 0 0 1.20762 -6.66658 -41.1841)" y="0" x="0"/></g></g><g id="svg_15" transform=""><use xlink:href="#aBMwV8ycj" opacity="1" fill="#ffffff" fill-opacity="1" id="svg_16" transform="matrix(1.21098 0 0 1.20762 -6.66658 -41.1841)" y="0" x="0"/><g id="svg_17" transform=""><use xlink:href="#aBMwV8ycj" opacity="1" fill-opacity="0" stroke="#000000" stroke-width="1" stroke-opacity="0" id="svg_18" transform="matrix(1.21098 0 0 1.20762 -6.66658 -41.1841)" y="0" x="0"/></g></g><g id="svg_19" transform=""><use xlink:href="#cgPPvkCge" opacity="1" fill="#000000" fill-opacity="0" id="svg_20" transform="matrix(1.21098 0 0 1.20762 -6.66658 -41.1841)" y="0" x="0"/><g id="svg_21" transform=""><use xlink:href="#cgPPvkCge" opacity="1" fill-opacity="0" stroke="#d4af37" stroke-width="10" stroke-opacity="1" id="svg_22" transform="matrix(1.21098 0 0 1.20762 -6.66658 -41.1841)" y="0" x="0"/></g></g><g id="svg_23" transform=""><use xlink:href="#h1GVOVVZ2Q" opacity="1" fill="#7f47ae" fill-opacity="1" id="svg_24" transform="matrix(1.21098 0 0 1.20762 -6.66658 -41.1841)" y="0" x="0"/><g id="svg_25" transform=""><use xlink:href="#h1GVOVVZ2Q" opacity="1" fill-opacity="0" stroke="#000000" stroke-width="1" stroke-opacity="0" id="svg_26" transform="matrix(1.21098 0 0 1.20762 -6.66658 -41.1841)" y="0" x="0"/></g></g><g id="svg_27" transform=""><use xlink:href="#b2Nt2ycwf1" opacity="1" fill="#000000" fill-opacity="0" id="svg_28" transform="matrix(1.21098 0 0 1.20762 -6.66658 -41.1841)" y="0" x="0"/><g id="svg_29" transform=""><use xlink:href="#b2Nt2ycwf1" opacity="1" fill-opacity="0" stroke="#000000" stroke-width="1" stroke-opacity="0" id="svg_30" transform="matrix(1.21098 0 0 1.20762 -6.66658 -41.1841)" y="0" x="0"/></g></g><g id="svg_31" transform=""><use xlink:href="#aldMRl7t" opacity="1" fill="#ffffff" fill-opacity="1" id="svg_32" transform="matrix(1.21098 0 0 1.20762 -6.66658 -41.1841)" y="0" x="0"/><g id="svg_33" transform=""><use xlink:href="#aldMRl7t" opacity="1" fill-opacity="0" stroke="#000000" stroke-width="1" stroke-opacity="0" id="svg_34" transform="matrix(1.21098 0 0 1.20762 -6.66658 -41.1841)" y="0" x="0"/></g></g><g id="svg_35" transform=""><use xlink:href="#a2TzWwFIcR" opacity="1" fill="#000000" fill-opacity="0" id="svg_36" transform="matrix(1.21098 0 0 1.20762 -6.66658 -41.1841)" y="0" x="0"/><g id="svg_37" transform=""><use xlink:href="#a2TzWwFIcR" opacity="1" fill-opacity="0" stroke="#d4af37" stroke-width="10" stroke-opacity="1" id="svg_38" transform="matrix(1.21098 0 0 1.20762 -6.66658 -41.1841)" y="0" x="0"/></g></g><g id="svg_39" transform=""><use xlink:href="#e2ps4ZizI" opacity="1" fill="#ffffff" fill-opacity="1" id="svg_40" transform="matrix(1.21098 0 0 1.20762 -6.66658 -41.1841)" y="0" x="0"/><g id="svg_41" transform=""><use xlink:href="#e2ps4ZizI" opacity="1" fill-opacity="0" stroke="#000000" stroke-width="1" stroke-opacity="0" id="svg_42" transform="matrix(1.21098 0 0 1.20762 -6.66658 -41.1841)" y="0" x="0"/></g></g><g id="svg_43" transform=""><use xlink:href="#d6bVgpm5aJ" opacity="1" fill="#000000" fill-opacity="0" id="svg_44" transform="matrix(1.21098 0 0 1.20762 -6.66658 -41.1841)" y="0" x="0"/><g id="svg_45" transform=""><use xlink:href="#d6bVgpm5aJ" opacity="1" fill-opacity="0" stroke="#d4af37" stroke-width="10" stroke-opacity="1" id="svg_46" transform="matrix(1.21098 0 0 1.20762 -6.66658 -41.1841)" y="0" x="0"/></g></g><g id="svg_47" transform=""><use xlink:href="#b1SZ6VRmor" opacity="1" fill="#ffffff" fill-opacity="1" id="svg_48" transform="matrix(1.21098 0 0 1.20762 -6.66658 -41.1841)" y="0" x="0"/><g id="svg_49" transform=""><use xlink:href="#b1SZ6VRmor" opacity="1" fill-opacity="0" stroke="#000000" stroke-width="1" stroke-opacity="0" id="svg_50" transform="matrix(1.21098 0 0 1.20762 -6.66658 -41.1841)" y="0" x="0"/></g></g><g id="svg_51" transform=""><use xlink:href="#dCdQpdebg" opacity="1" fill="#000000" fill-opacity="0" id="svg_52" transform="matrix(1.21098 0 0 1.20762 -6.66658 -41.1841)" y="0" x="0"/><g id="svg_53" transform=""><use xlink:href="#dCdQpdebg" opacity="1" fill-opacity="0" stroke="#d4af37" stroke-width="10" stroke-opacity="1" id="svg_54" transform="matrix(1.21098 0 0 1.20762 -6.66658 -41.1841)" y="0" x="0"/></g></g><g id="svg_55" transform=""><use xlink:href="#a3QG48Mj6K" opacity="1" fill="#ffffff" fill-opacity="1" id="svg_56" transform="matrix(1.21098 0 0 1.20762 -6.66658 -41.1841)" y="0" x="0"/><g id="svg_57" transform=""><use xlink:href="#a3QG48Mj6K" opacity="1" fill-opacity="0" stroke="#000000" stroke-width="1" stroke-opacity="0" id="svg_58" transform="matrix(1.21098 0 0 1.20762 -6.66658 -41.1841)" y="0" x="0"/></g></g><g id="svg_59" transform=""><use xlink:href="#b1Lg9p7Hxy" opacity="1" fill="#000000" fill-opacity="0" id="svg_60" transform="matrix(1.21098 0 0 1.20762 -6.66658 -41.1841)" y="0" x="0"/><g id="svg_61" transform=""><use xlink:href="#b1Lg9p7Hxy" opacity="1" fill-opacity="0" stroke="#000000" stroke-width="1" stroke-opacity="0.01" id="svg_62" transform="matrix(1.21098 0 0 1.20762 -6.66658 -41.1841)" y="0" x="0"/></g></g><g id="svg_63" transform=""><use xlink:href="#a1Lm26QW6U" opacity="1" fill="#ffffff" fill-opacity="1" id="svg_64" transform="matrix(1.21098 0 0 1.20762 -6.66658 -41.1841)" y="0" x="0"/><g id="svg_65" transform=""><use xlink:href="#a1Lm26QW6U" opacity="1" fill-opacity="0" stroke="#000000" stroke-width="1" stroke-opacity="0" id="svg_66" transform="matrix(1.21098 0 0 1.20762 -6.66658 -41.1841)" y="0" x="0"/></g></g><g id="svg_67" transform=""><use xlink:href="#b8Qn4j4D6" opacity="1" fill="#ffffff" fill-opacity="1" id="svg_68" transform="matrix(1.21098 0 0 1.20762 -6.66658 -41.1841)" y="0" x="0"/><g id="svg_69" transform=""><use xlink:href="#b8Qn4j4D6" opacity="1" fill-opacity="0" stroke="#000000" stroke-width="1" stroke-opacity="0" id="svg_70" transform="matrix(1.21098 0 0 1.20762 -6.66658 -41.1841)" y="0" x="0"/></g></g><g id="svg_71" transform=""><use xlink:href="#aONhn5nsI" opacity="1" fill="#ffffff" fill-opacity="1" id="svg_72" transform="matrix(1.21098 0 0 1.20762 -6.66658 -41.1841)" y="0" x="0"/><g id="svg_73" transform=""><use xlink:href="#aONhn5nsI" opacity="1" fill-opacity="0" stroke="#000000" stroke-width="1" stroke-opacity="0" id="svg_74" transform="matrix(1.21098 0 0 1.20762 -6.66658 -41.1841)" y="0" x="0"/></g></g><g id="svg_75" transform=""><use xlink:href="#e6rmLoQP4" opacity="1" fill="#ffffff" fill-opacity="1" id="svg_76" transform="matrix(1.21098 0 0 1.20762 -6.66658 -41.1841)" y="0" x="0"/><g id="svg_77" transform=""><use xlink:href="#e6rmLoQP4" opacity="1" fill-opacity="0" stroke="#000000" stroke-width="1" stroke-opacity="0" id="svg_78" transform="matrix(1.21098 0 0 1.20762 -6.66658 -41.1841)" y="0" x="0"/></g></g><g id="svg_79" transform=""><use xlink:href="#h14uyg7w1r" opacity="1" fill="#ffffff" fill-opacity="1" id="svg_80" transform="matrix(1.21098 0 0 1.20762 -6.66658 -41.1841)" y="0" x="0"/><g id="svg_81" transform=""><use xlink:href="#h14uyg7w1r" opacity="1" fill-opacity="0" stroke="#000000" stroke-width="1" stroke-opacity="0" id="svg_82" transform="matrix(1.21098 0 0 1.20762 -6.66658 -41.1841)" y="0" x="0"/></g></g><g id="svg_83" transform=""><use xlink:href="#c8U2JDmZXv" opacity="1" fill="#ffffff" fill-opacity="1" id="svg_84" transform="matrix(1.21098 0 0 1.20762 -6.66658 -41.1841)" y="0" x="0"/><g id="svg_85" transform=""><use xlink:href="#c8U2JDmZXv" opacity="1" fill-opacity="0" stroke="#000000" stroke-width="1" stroke-opacity="0" id="svg_86" transform="matrix(1.21098 0 0 1.20762 -6.66658 -41.1841)" y="0" x="0"/></g></g></g></g></g></svg>