<?xml version="1.0" encoding="UTF-8" standalone="no"?>
<!DOCTYPE svg PUBLIC "-//W3C//DTD SVG 1.1//EN" "http://www.w3.org/Graphics/SVG/1.1/DTD/svg11.dtd">
<svg version="1.1" xmlns="http://www.w3.org/2000/svg" xmlns:xlink="http://www.w3.org/1999/xlink" preserveAspectRatio="xMidYMid meet" viewBox="0 0 640 640" width="640" height="640"><defs><path d="M331.9 493.6C327.75 493.89 323.56 494.05 319.34 494.05C222.59 494.04 144.17 415.6 144.18 318.86C144.19 242.47 193.7 174.89 266.53 151.86C267.39 147.08 274.27 108.87 275.14 104.1C156.88 128.96 81.17 244.97 106.03 363.22C127.3 464.45 216.56 536.94 320 537.01C323.97 537.01 327.93 536.89 331.9 536.68C331.9 528.07 331.9 502.22 331.9 493.6Z" id="aBmOTa3d"></path><path d="M279.13 439.11L291.84 371.34C230.04 287.33 195.72 240.66 188.85 231.32C177.8 247.73 170.09 266.14 166.14 285.52C181.21 306 218.87 357.19 279.13 439.11Z" id="aGcaZUSYH"></path><path d="M357.17 147.84C451.63 168.7 511.3 262.19 490.44 356.65C481.16 398.69 456.72 435.84 421.78 461C421.78 466.1 421.78 506.87 421.78 511.96C528.78 455.79 569.99 323.52 513.82 216.52C483.49 158.75 428.96 117.52 365.1 104.1C363.52 112.85 357.96 143.46 357.17 147.84Z" id="a4bokwX2JS"></path><path d="M400.59 317.73L350.2 317.73L350.2 598.97L400.59 640L400.59 640L400.59 317.73Z" id="a1DF8ipLSy"></path><path d="M286.38 329.97C397.49 329.97 459.22 329.97 471.57 329.97C472.02 324.16 471.97 319.41 472.02 318.24C472.02 305.19 470.35 292.2 467.05 279.58C455 279.58 394.78 279.58 286.38 279.58L286.38 329.97Z" id="b1tJeoAXDd"></path><path d="M237.22 381.69L280.63 440.73L364.93 0L303.44 35.51L303.44 35.51L237.22 381.69Z" id="a3sxom7Tvh"></path><path d="M261.87 310.87L266.07 383.9L234.61 335.21" id="a3FQJmkYCl"></path><path d="M250.34 355.33C250.34 370.21 246.31 382.29 241.35 382.29C236.39 382.29 232.36 370.21 232.36 355.33C232.36 340.44 236.39 328.36 241.35 328.36C246.31 328.36 250.34 340.44 250.34 355.33Z" id="d6ZB3OUxOo"></path><path d="M271.69 322.16C271.69 326.47 262.12 329.97 250.34 329.97C238.55 329.97 228.99 326.47 228.99 322.16C228.99 317.85 238.55 314.36 250.34 314.36C262.12 314.36 271.69 317.85 271.69 322.16Z" id="a5MDG4vSiJ"></path><path d="M351.8 293.5L399 293.5L399 335.21L351.8 335.21L351.8 293.5Z" id="e1JqmD3YSD"></path><path d="M323.37 298.65C323.37 309.18 316.91 317.73 308.94 317.73C300.98 317.73 294.51 309.18 294.51 298.65C294.51 288.12 300.98 279.58 308.94 279.58C316.91 279.58 323.37 288.12 323.37 298.65Z" id="g5mWiTaERh"></path><path d="M315.68 320.56C315.68 324.86 309.89 328.36 302.76 328.36C295.63 328.36 289.84 324.86 289.84 320.56C289.84 316.25 295.63 312.75 302.76 312.75C309.89 312.75 315.68 316.25 315.68 320.56Z" id="a3MRuvnZLt"></path></defs><g><g><g><use xlink:href="#aBmOTa3d" opacity="1" fill="#7f47ae" fill-opacity="1"></use><g><use xlink:href="#aBmOTa3d" opacity="1" fill-opacity="0" stroke="#000000" stroke-width="1" stroke-opacity="0"></use></g></g><g><use xlink:href="#aGcaZUSYH" opacity="1" fill="#ffffff" fill-opacity="1"></use><g><use xlink:href="#aGcaZUSYH" opacity="1" fill-opacity="0" stroke="#d4af37" stroke-width="3" stroke-opacity="1"></use></g></g><g><use xlink:href="#a4bokwX2JS" opacity="1" fill="#7f47ae" fill-opacity="1"></use><g><use xlink:href="#a4bokwX2JS" opacity="1" fill-opacity="0" stroke="#000000" stroke-width="1" stroke-opacity="0"></use></g></g><g><use xlink:href="#a1DF8ipLSy" opacity="1" fill="#ffffff" fill-opacity="1"></use><g><use xlink:href="#a1DF8ipLSy" opacity="1" fill-opacity="0" stroke="#d4af37" stroke-width="3" stroke-opacity="1"></use></g></g><g><use xlink:href="#b1tJeoAXDd" opacity="1" fill="#ffffff" fill-opacity="1"></use><g><use xlink:href="#b1tJeoAXDd" opacity="1" fill-opacity="0" stroke="#d4af37" stroke-width="3" stroke-opacity="1"></use></g></g><g><use xlink:href="#a3sxom7Tvh" opacity="1" fill="#ffffff" fill-opacity="1"></use><g><use xlink:href="#a3sxom7Tvh" opacity="1" fill-opacity="0" stroke="#d4af37" stroke-width="3" stroke-opacity="1"></use></g></g><g><use xlink:href="#a3FQJmkYCl" opacity="1" fill="#ffffff" fill-opacity="1"></use><g><use xlink:href="#a3FQJmkYCl" opacity="1" fill-opacity="0" stroke="#000000" stroke-width="1" stroke-opacity="0.01"></use></g></g><g><use xlink:href="#d6ZB3OUxOo" opacity="1" fill="#ffffff" fill-opacity="1"></use></g><g><use xlink:href="#a5MDG4vSiJ" opacity="1" fill="#ffffff" fill-opacity="1"></use></g><g><use xlink:href="#e1JqmD3YSD" opacity="1" fill="#ffffff" fill-opacity="1"></use></g><g><use xlink:href="#g5mWiTaERh" opacity="1" fill="#ffffff" fill-opacity="1"></use></g><g><use xlink:href="#a3MRuvnZLt" opacity="1" fill="#ffffff" fill-opacity="1"></use></g></g></g></svg>