<?xml version="1.0" encoding="UTF-8" standalone="no"?>
<!DOCTYPE svg PUBLIC "-//W3C//DTD SVG 1.1//EN" "http://www.w3.org/Graphics/SVG/1.1/DTD/svg11.dtd">
<svg version="1.1" xmlns="http://www.w3.org/2000/svg" xmlns:xlink="http://www.w3.org/1999/xlink" preserveAspectRatio="xMidYMid meet" viewBox="0 0 640 640" width="640" height="640"><defs><path d="M331.9 493.6C327.75 493.89 323.56 494.05 319.34 494.05C222.59 494.04 144.17 415.6 144.18 318.86C144.19 242.47 193.7 174.89 266.53 151.86C267.39 147.08 274.27 108.87 275.14 104.1C156.88 128.96 81.17 244.97 106.03 363.22C127.3 464.45 216.56 536.94 320 537.01C323.97 537.01 327.93 536.89 331.9 536.68C331.9 528.07 331.9 502.22 331.9 493.6Z" id="aBmOTa3d"></path><path d="M279.13 439.11L291.84 371.34C230.04 287.33 195.72 240.66 188.85 231.32C177.8 247.73 170.09 266.14 166.14 285.52C181.21 306 218.87 357.19 279.13 439.11Z" id="b15z6lIaGG"></path><path d="M357.17 147.84C451.63 168.7 511.3 262.19 490.44 356.65C481.16 398.69 456.72 435.84 421.78 461C421.78 466.1 421.78 506.87 421.78 511.96C528.78 455.79 569.99 323.52 513.82 216.52C483.49 158.75 428.96 117.52 365.1 104.1C363.52 112.85 357.96 143.46 357.17 147.84Z" id="a4bokwX2JS"></path><path d="M400.59 317.73L350.2 317.73L350.2 598.97L400.59 640L400.59 640L400.59 317.73Z" id="aEKor9RCB"></path><path d="M286.38 329.97C397.49 329.97 459.22 329.97 471.57 329.97C472.02 324.16 471.97 319.41 472.02 318.24C472.02 305.19 470.35 292.2 467.05 279.58C455 279.58 394.78 279.58 286.38 279.58L286.38 329.97Z" id="csUcNR4EN"></path><path d="M237.22 381.69L280.63 440.73L364.93 0L303.44 35.51L303.44 35.51L237.22 381.69Z" id="eho8tL4xA"></path><path d="M261.87 310.87L266.07 383.9L234.61 335.21" id="a3FQJmkYCl"></path><path d="M264.7 355.17C264.7 370.77 257.14 383.44 247.84 383.44C238.54 383.44 230.99 370.77 230.99 355.17C230.99 339.57 238.54 326.9 247.84 326.9C257.14 326.9 264.7 339.57 264.7 355.17Z" id="c1q1Obde2T"></path><path d="M271.69 322.16C271.69 326.47 262.12 329.97 250.34 329.97C238.55 329.97 228.99 326.47 228.99 322.16C228.99 317.85 238.55 314.36 250.34 314.36C262.12 314.36 271.69 317.85 271.69 322.16Z" id="dVJNq60kz"></path><path d="M352.93 293.5L397.87 293.5L397.87 335.21L352.93 335.21L352.93 293.5Z" id="bEDqjva7y"></path><path d="M320 297.65C320 308.18 313.53 316.73 305.57 316.73C297.61 316.73 291.14 308.18 291.14 297.65C291.14 287.12 297.61 278.58 305.57 278.58C313.53 278.58 320 287.12 320 297.65Z" id="bJarkiKF6"></path><path d="M317.5 316.97C317.5 321.9 310.45 325.9 301.77 325.9C293.09 325.9 286.04 321.9 286.04 316.97C286.04 312.03 293.09 308.03 301.77 308.03C310.45 308.03 317.5 312.03 317.5 316.97Z" id="a378VMRcO1"></path><path d="M268.3 297.65L305.57 297.65L305.57 327.36L268.3 327.36L268.3 297.65Z" id="e8hIjoVGn0"></path></defs><g><g><g><use xlink:href="#aBmOTa3d" opacity="1" fill="#7f47ae" fill-opacity="1"></use><g><use xlink:href="#aBmOTa3d" opacity="1" fill-opacity="0" stroke="#000000" stroke-width="1" stroke-opacity="0"></use></g></g><g><use xlink:href="#b15z6lIaGG" opacity="1" fill="#ffffff" fill-opacity="1"></use><g><use xlink:href="#b15z6lIaGG" opacity="1" fill-opacity="0" stroke="#d4af37" stroke-width="5" stroke-opacity="1"></use></g></g><g><use xlink:href="#a4bokwX2JS" opacity="1" fill="#7f47ae" fill-opacity="1"></use><g><use xlink:href="#a4bokwX2JS" opacity="1" fill-opacity="0" stroke="#000000" stroke-width="1" stroke-opacity="0"></use></g></g><g><use xlink:href="#aEKor9RCB" opacity="1" fill="#ffffff" fill-opacity="1"></use><g><use xlink:href="#aEKor9RCB" opacity="1" fill-opacity="0" stroke="#d4af37" stroke-width="5" stroke-opacity="1"></use></g></g><g><use xlink:href="#csUcNR4EN" opacity="1" fill="#ffffff" fill-opacity="1"></use><g><use xlink:href="#csUcNR4EN" opacity="1" fill-opacity="0" stroke="#d4af37" stroke-width="5" stroke-opacity="1"></use></g></g><g><use xlink:href="#eho8tL4xA" opacity="1" fill="#ffffff" fill-opacity="1"></use><g><use xlink:href="#eho8tL4xA" opacity="1" fill-opacity="0" stroke="#d4af37" stroke-width="5" stroke-opacity="1"></use></g></g><g><use xlink:href="#a3FQJmkYCl" opacity="1" fill="#ffffff" fill-opacity="1"></use><g><use xlink:href="#a3FQJmkYCl" opacity="1" fill-opacity="0" stroke="#000000" stroke-width="1" stroke-opacity="0.01"></use></g></g><g><use xlink:href="#c1q1Obde2T" opacity="1" fill="#ffffff" fill-opacity="1"></use></g><g><use xlink:href="#dVJNq60kz" opacity="1" fill="#ffffff" fill-opacity="1"></use></g><g><use xlink:href="#bEDqjva7y" opacity="1" fill="#ffffff" fill-opacity="1"></use></g><g><use xlink:href="#bJarkiKF6" opacity="1" fill="#ffffff" fill-opacity="1"></use></g><g><use xlink:href="#a378VMRcO1" opacity="1" fill="#ffffff" fill-opacity="1"></use></g><g><use xlink:href="#e8hIjoVGn0" opacity="1" fill="#ffffff" fill-opacity="1"></use></g></g></g></svg>