<?xml version="1.0" encoding="UTF-8" standalone="no"?>
<!DOCTYPE svg PUBLIC "-//W3C//DTD SVG 1.1//EN" "http://www.w3.org/Graphics/SVG/1.1/DTD/svg11.dtd">
<svg version="1.1" xmlns="http://www.w3.org/2000/svg" xmlns:xlink="http://www.w3.org/1999/xlink" preserveAspectRatio="xMidYMid meet" viewBox="0 0 2000 700" width="2000" height="700"><defs><path d="M-274.33 377.39L2126 377.39L2126 459.75L-274.33 459.75L-274.33 377.39Z" id="cGExnZ1iy"></path><path d="M-157.83 201.33L2068.5 201.33L2068.5 283.7L-157.83 283.7L-157.83 201.33Z" id="e16lryyJbQ"></path><path d="M1036.06 524.05C933.65 524.04 850.64 445.6 850.65 348.86C850.66 272.47 903.07 204.89 980.16 181.86C981.07 177.08 988.35 138.87 989.27 134.1C864.09 158.96 783.95 274.97 810.27 393.22C832.78 494.45 927.26 566.94 1036.76 567.01C1040.96 567.01 1045.15 566.89 1049.36 566.68C1049.36 558.07 1049.36 532.22 1049.36 523.6C1044.96 523.89 1040.53 524.05 1036.06 524.05Z" id="e6buytWHk"></path><path d="M1036.06 524.05C933.65 524.04 850.64 445.6 850.65 348.86C850.66 272.47 903.07 204.89 980.16 181.86C981.07 177.08 988.35 138.87 989.27 134.1C864.09 158.96 783.95 274.97 810.27 393.22C832.78 494.45 927.26 566.94 1036.76 567.01C1040.96 567.01 1045.15 566.89 1049.36 566.68C1049.36 558.07 1049.36 532.22 1049.36 523.6C1044.96 523.89 1040.53 524.05 1036.06 524.05Z" id="bz2KELKzM"></path><path d="M1006.95 401.34C941.53 317.33 905.21 270.66 897.93 261.32C886.24 277.73 878.08 296.14 873.89 315.52C889.85 336 929.71 387.19 993.5 469.11C996.19 455.56 1005.61 408.12 1006.95 401.34Z" id="cGdVVUSNV"></path><path d="M1006.95 401.34C941.53 317.33 905.21 270.66 897.93 261.32C886.24 277.73 878.08 296.14 873.89 315.52C889.85 336 929.71 387.19 993.5 469.11C996.19 455.56 1005.61 408.12 1006.95 401.34Z" id="cMhtuG8aI"></path><path d="M1217.17 386.65C1207.35 428.69 1181.48 465.84 1144.5 491C1144.5 496.1 1144.5 536.87 1144.5 541.96C1257.76 485.79 1301.38 353.52 1241.92 246.52C1209.82 188.75 1152.1 147.52 1084.5 134.1C1082.83 142.85 1076.94 173.46 1076.1 177.84C1176.09 198.7 1239.26 292.19 1217.17 386.65Z" id="b274mrviM"></path><path d="M1217.17 386.65C1207.35 428.69 1181.48 465.84 1144.5 491C1144.5 496.1 1144.5 536.87 1144.5 541.96C1257.76 485.79 1301.38 353.52 1241.92 246.52C1209.82 188.75 1152.1 147.52 1084.5 134.1C1082.83 142.85 1076.94 173.46 1076.1 177.84C1176.09 198.7 1239.26 292.19 1217.17 386.65Z" id="blH0GnGGr"></path><path d="M1068.73 347.73L1068.73 628.97L1122.07 670L1122.07 670L1122.07 347.73L1068.73 347.73Z" id="d1QDDF1ZNg"></path><path d="M1068.73 347.73L1068.73 628.97L1122.07 670L1122.07 670L1122.07 347.73L1068.73 347.73Z" id="a2jrwf1Uqr"></path><path d="M1197.2 359.97C1197.68 354.16 1197.62 349.41 1197.68 348.24C1197.68 335.19 1195.91 322.2 1192.42 309.58C1179.66 309.58 1115.92 309.58 1001.17 309.58C1001.17 312.94 1001.17 329.74 1001.17 359.97C1123.14 359.97 1188.48 359.97 1197.2 359.97Z" id="e1C5t2o7cz"></path><path d="M1197.2 359.97C1197.68 354.16 1197.62 349.41 1197.68 348.24C1197.68 335.19 1195.91 322.2 1192.42 309.58C1179.66 309.58 1115.92 309.58 1001.17 309.58C1001.17 312.94 1001.17 329.74 1001.17 359.97C1123.14 359.97 1188.48 359.97 1197.2 359.97Z" id="a1AJU5IwNR"></path><path d="M995.08 470.73L1084.32 30L1019.23 65.51L1019.23 65.51L949.13 411.69L995.08 470.73Z" id="cTChBqm0x"></path><path d="M995.08 470.73L1084.32 30L1019.23 65.51L1019.23 65.51L949.13 411.69L995.08 470.73Z" id="a40eNhgYPb"></path><path d="M975.23 340.87L979.67 413.9L946.37 365.21" id="a1cwfj0ned"></path><path d="M975.23 340.87L979.67 413.9L946.37 365.21" id="bifxt06Zi"></path><path d="M969.28 414.9C954.55 414.9 942.6 401.68 942.6 385.4C942.6 369.12 954.55 355.9 969.28 355.9C983.99 355.9 995.94 369.12 995.94 385.4C995.94 401.68 983.99 414.9 969.28 414.9Z" id="d3cg3fCvN"></path><path d="M961.96 361.97C949.48 361.97 939.36 358.47 939.36 354.16C939.36 349.85 949.48 346.36 961.96 346.36C974.43 346.36 984.56 349.85 984.56 354.16C984.56 358.47 974.43 361.97 961.96 361.97Z" id="c22xFzd5Qz"></path><path d="M1116.82 323.5L1116.82 373.89L1073.78 373.89L1073.78 323.5L1116.82 323.5Z" id="e23uMzjo9Y"></path><path d="M1025.7 350.73C1009.86 350.73 997 342.4 997 332.15C997 321.9 1009.86 313.58 1025.7 313.58C1041.53 313.58 1054.39 321.9 1054.39 332.15C1054.39 342.4 1041.53 350.73 1025.7 350.73Z" id="dZHxLoZte"></path><path d="M1017.83 354.66C1008.63 354.66 1001.17 350.66 1001.17 345.73C1001.17 340.79 1008.63 336.79 1017.83 336.79C1027.02 336.79 1034.48 340.79 1034.48 345.73C1034.48 350.66 1027.02 354.66 1017.83 354.66Z" id="aDeLmnZGn"></path><path d="M1021.48 323.65L1021.48 353.36L982.03 353.36L982.03 323.65L1021.48 323.65Z" id="a5Xln8CcIw"></path></defs><g><g><g><use xlink:href="#cGExnZ1iy" opacity="1" fill="#4b1175" fill-opacity="1"></use></g><g><use xlink:href="#e16lryyJbQ" opacity="1" fill="#ae9305" fill-opacity="1"></use></g><g><use xlink:href="#e6buytWHk" opacity="1" fill="#7f47ae" fill-opacity="1"></use><g><use xlink:href="#e6buytWHk" opacity="1" fill-opacity="0" stroke="#000000" stroke-width="1" stroke-opacity="0"></use></g></g><g><use xlink:href="#bz2KELKzM" opacity="1" fill="#000000" fill-opacity="0"></use><g><use xlink:href="#bz2KELKzM" opacity="1" fill-opacity="0" stroke="#000000" stroke-width="1" stroke-opacity="0"></use></g></g><g><use xlink:href="#cGdVVUSNV" opacity="1" fill="#ffffff" fill-opacity="1"></use><g><use xlink:href="#cGdVVUSNV" opacity="1" fill-opacity="0" stroke="#000000" stroke-width="1" stroke-opacity="0"></use></g></g><g><use xlink:href="#cMhtuG8aI" opacity="1" fill="#000000" fill-opacity="0"></use><g><use xlink:href="#cMhtuG8aI" opacity="1" fill-opacity="0" stroke="#d4af37" stroke-width="10" stroke-opacity="1"></use></g></g><g><use xlink:href="#b274mrviM" opacity="1" fill="#7f47ae" fill-opacity="1"></use><g><use xlink:href="#b274mrviM" opacity="1" fill-opacity="0" stroke="#000000" stroke-width="1" stroke-opacity="0"></use></g></g><g><use xlink:href="#blH0GnGGr" opacity="1" fill="#000000" fill-opacity="0"></use><g><use xlink:href="#blH0GnGGr" opacity="1" fill-opacity="0" stroke="#000000" stroke-width="1" stroke-opacity="0"></use></g></g><g><use xlink:href="#d1QDDF1ZNg" opacity="1" fill="#ffffff" fill-opacity="1"></use><g><use xlink:href="#d1QDDF1ZNg" opacity="1" fill-opacity="0" stroke="#000000" stroke-width="1" stroke-opacity="0"></use></g></g><g><use xlink:href="#a2jrwf1Uqr" opacity="1" fill="#000000" fill-opacity="0"></use><g><use xlink:href="#a2jrwf1Uqr" opacity="1" fill-opacity="0" stroke="#d4af37" stroke-width="10" stroke-opacity="1"></use></g></g><g><use xlink:href="#e1C5t2o7cz" opacity="1" fill="#ffffff" fill-opacity="1"></use><g><use xlink:href="#e1C5t2o7cz" opacity="1" fill-opacity="0" stroke="#000000" stroke-width="1" stroke-opacity="0"></use></g></g><g><use xlink:href="#a1AJU5IwNR" opacity="1" fill="#000000" fill-opacity="0"></use><g><use xlink:href="#a1AJU5IwNR" opacity="1" fill-opacity="0" stroke="#d4af37" stroke-width="10" stroke-opacity="1"></use></g></g><g><use xlink:href="#cTChBqm0x" opacity="1" fill="#ffffff" fill-opacity="1"></use><g><use xlink:href="#cTChBqm0x" opacity="1" fill-opacity="0" stroke="#000000" stroke-width="1" stroke-opacity="0"></use></g></g><g><use xlink:href="#a40eNhgYPb" opacity="1" fill="#000000" fill-opacity="0"></use><g><use xlink:href="#a40eNhgYPb" opacity="1" fill-opacity="0" stroke="#d4af37" stroke-width="10" stroke-opacity="1"></use></g></g><g><use xlink:href="#a1cwfj0ned" opacity="1" fill="#ffffff" fill-opacity="1"></use><g><use xlink:href="#a1cwfj0ned" opacity="1" fill-opacity="0" stroke="#000000" stroke-width="1" stroke-opacity="0"></use></g></g><g><use xlink:href="#bifxt06Zi" opacity="1" fill="#000000" fill-opacity="0"></use><g><use xlink:href="#bifxt06Zi" opacity="1" fill-opacity="0" stroke="#000000" stroke-width="1" stroke-opacity="0.01"></use></g></g><g><use xlink:href="#d3cg3fCvN" opacity="1" fill="#ffffff" fill-opacity="1"></use><g><use xlink:href="#d3cg3fCvN" opacity="1" fill-opacity="0" stroke="#000000" stroke-width="1" stroke-opacity="0"></use></g></g><g><use xlink:href="#c22xFzd5Qz" opacity="1" fill="#ffffff" fill-opacity="1"></use><g><use xlink:href="#c22xFzd5Qz" opacity="1" fill-opacity="0" stroke="#000000" stroke-width="1" stroke-opacity="0"></use></g></g><g><use xlink:href="#e23uMzjo9Y" opacity="1" fill="#ffffff" fill-opacity="1"></use><g><use xlink:href="#e23uMzjo9Y" opacity="1" fill-opacity="0" stroke="#000000" stroke-width="1" stroke-opacity="0"></use></g></g><g><use xlink:href="#dZHxLoZte" opacity="1" fill="#ffffff" fill-opacity="1"></use><g><use xlink:href="#dZHxLoZte" opacity="1" fill-opacity="0" stroke="#000000" stroke-width="1" stroke-opacity="0"></use></g></g><g><use xlink:href="#aDeLmnZGn" opacity="1" fill="#ffffff" fill-opacity="1"></use><g><use xlink:href="#aDeLmnZGn" opacity="1" fill-opacity="0" stroke="#000000" stroke-width="1" stroke-opacity="0"></use></g></g><g><use xlink:href="#a5Xln8CcIw" opacity="1" fill="#ffffff" fill-opacity="1"></use><g><use xlink:href="#a5Xln8CcIw" opacity="1" fill-opacity="0" stroke="#000000" stroke-width="1" stroke-opacity="0"></use></g></g></g></g></svg>